<?xml version="1.0" encoding="UTF-8" standalone="no"?>
<svg xmlns="http://www.w3.org/2000/svg"
     xmlns:svg="http://www.w3.org/2000/svg"
     version="1.1"
     width="173.398mm" height="173.398mm"
     viewBox="0 0 8192 8192">
  <path id="path1"
        fill="oklch(1 0 0)" stroke="none"
        d="M 4032.00,0.14
           C 4032.00,0.14 4098.00,0.14 4098.00,0.14
             4098.00,0.14 4152.00,0.14 4152.00,0.14
             4152.00,0.14 4169.00,1.00 4169.00,1.00
             4169.00,1.00 4199.00,1.00 4199.00,1.00
             4199.00,1.00 4216.00,2.00 4216.00,2.00
             4216.00,2.00 4231.00,2.00 4231.00,2.00
             4231.00,2.00 4243.00,2.96 4243.00,2.96
             4243.00,2.96 4257.00,2.96 4257.00,2.96
             4257.00,2.96 4272.00,4.00 4272.00,4.00
             4272.00,4.00 4301.00,5.00 4301.00,5.00
             4301.00,5.00 4317.00,6.00 4317.00,6.00
             4317.00,6.00 4348.00,8.00 4348.00,8.00
             4348.00,8.00 4357.00,8.00 4357.00,8.00
             4357.00,8.00 4393.00,10.91 4393.00,10.91
             4393.00,10.91 4523.00,22.17 4523.00,22.17
             4523.00,22.17 4581.00,28.84 4581.00,28.84
             4581.00,28.84 4665.00,39.72 4665.00,39.72
             4715.15,46.32 4765.22,54.60 4815.00,63.58
             4982.39,93.76 5147.56,133.49 5310.00,183.98
             5744.58,319.05 6147.28,521.90 6515.00,790.15
             6624.60,870.10 6732.18,957.43 6833.00,1048.17
             6833.00,1048.17 6954.00,1161.04 6954.00,1161.04
             6954.00,1161.04 6984.00,1191.00 6984.00,1191.00
             6984.00,1191.00 7030.96,1238.00 7030.96,1238.00
             7030.96,1238.00 7064.04,1273.00 7064.04,1273.00
             7218.40,1434.39 7354.31,1605.21 7480.98,1789.00
             7534.56,1866.76 7585.03,1947.33 7632.42,2029.00
             7800.81,2319.14 7925.35,2605.74 8021.72,2927.00
             8082.69,3130.25 8128.59,3345.61 8156.28,3556.00
             8156.28,3556.00 8173.83,3709.00 8173.83,3709.00
             8173.83,3709.00 8178.17,3761.00 8178.17,3761.00
             8178.17,3761.00 8183.09,3828.00 8183.09,3828.00
             8183.09,3828.00 8185.00,3854.00 8185.00,3854.00
             8185.00,3854.00 8187.00,3897.00 8187.00,3897.00
             8187.00,3897.00 8188.00,3912.00 8188.00,3912.00
             8188.00,3912.00 8189.04,3935.00 8189.04,3935.00
             8189.04,3935.00 8189.04,3949.00 8189.04,3949.00
             8189.04,3949.00 8190.00,3960.00 8190.00,3960.00
             8190.00,3960.00 8190.00,3976.00 8190.00,3976.00
             8190.00,3976.00 8191.00,3993.00 8191.00,3993.00
             8191.00,3993.00 8191.00,4023.00 8191.00,4023.00
             8191.00,4023.00 8192.00,4040.00 8192.00,4040.00
             8192.00,4040.00 8192.00,4154.00 8192.00,4154.00
             8192.00,4154.00 8191.00,4169.00 8191.00,4169.00
             8191.00,4169.00 8191.00,4200.00 8191.00,4200.00
             8191.00,4200.00 8190.00,4216.00 8190.00,4216.00
             8190.00,4216.00 8190.00,4231.00 8190.00,4231.00
             8190.00,4231.00 8189.04,4243.00 8189.04,4243.00
             8189.04,4243.00 8189.04,4257.00 8189.04,4257.00
             8189.04,4257.00 8188.00,4280.00 8188.00,4280.00
             8188.00,4280.00 8187.00,4295.00 8187.00,4295.00
             8187.00,4295.00 8186.00,4316.00 8186.00,4316.00
             8186.00,4316.00 8185.00,4338.00 8185.00,4338.00
             8185.00,4338.00 8183.09,4364.00 8183.09,4364.00
             8183.09,4364.00 8178.17,4431.00 8178.17,4431.00
             8178.17,4431.00 8176.83,4450.00 8176.83,4450.00
             8176.83,4450.00 8169.83,4523.00 8169.83,4523.00
             8169.83,4523.00 8152.28,4665.00 8152.28,4665.00
             8138.15,4772.36 8117.77,4879.29 8094.42,4985.00
             8061.38,5134.62 8019.90,5283.22 7969.66,5428.00
             7826.54,5840.38 7622.08,6227.66 7357.12,6575.00
             7170.28,6819.93 6967.31,7032.80 6732.00,7231.58
             6665.60,7287.67 6596.96,7341.31 6527.00,7392.88
             6125.25,7689.04 5673.81,7908.87 5193.00,8042.58
             5025.78,8089.08 4855.69,8124.44 4684.00,8149.73
             4630.57,8157.60 4576.72,8164.46 4523.00,8169.83
             4523.00,8169.83 4443.00,8177.17 4443.00,8177.17
             4443.00,8177.17 4379.00,8182.09 4379.00,8182.09
             4379.00,8182.09 4357.00,8184.00 4357.00,8184.00
             4357.00,8184.00 4348.00,8184.00 4348.00,8184.00
             4348.00,8184.00 4335.00,8185.00 4335.00,8185.00
             4335.00,8185.00 4321.00,8186.00 4321.00,8186.00
             4321.00,8186.00 4295.00,8187.00 4295.00,8187.00
             4295.00,8187.00 4280.00,8188.00 4280.00,8188.00
             4280.00,8188.00 4257.00,8189.04 4257.00,8189.04
             4257.00,8189.04 4243.00,8189.04 4243.00,8189.04
             4243.00,8189.04 4232.00,8190.00 4232.00,8190.00
             4232.00,8190.00 4216.00,8190.00 4216.00,8190.00
             4216.00,8190.00 4199.00,8191.00 4199.00,8191.00
             4199.00,8191.00 4169.00,8191.00 4169.00,8191.00
             4169.00,8191.00 4152.00,8192.00 4152.00,8192.00
             4152.00,8192.00 4038.00,8192.00 4038.00,8192.00
             4038.00,8192.00 4023.00,8191.00 4023.00,8191.00
             4023.00,8191.00 3993.00,8191.00 3993.00,8191.00
             3993.00,8191.00 3976.00,8190.00 3976.00,8190.00
             3976.00,8190.00 3933.00,8189.00 3933.00,8189.00
             3933.00,8189.00 3918.00,8188.00 3918.00,8188.00
             3918.00,8188.00 3891.00,8187.00 3891.00,8187.00
             3891.00,8187.00 3873.00,8186.00 3873.00,8186.00
             3873.00,8186.00 3854.00,8185.00 3854.00,8185.00
             3854.00,8185.00 3844.00,8184.00 3844.00,8184.00
             3844.00,8184.00 3835.00,8184.00 3835.00,8184.00
             3835.00,8184.00 3813.00,8182.09 3813.00,8182.09
             3813.00,8182.09 3749.00,8177.17 3749.00,8177.17
             3749.00,8177.17 3669.00,8169.83 3669.00,8169.83
             3612.21,8164.15 3555.47,8156.59 3499.00,8148.27
             3225.26,8107.95 2954.88,8040.11 2695.00,7945.05
             2279.85,7793.21 1903.46,7583.40 1556.00,7309.79
             1472.75,7244.24 1391.51,7175.12 1314.00,7102.91
             1314.00,7102.91 1264.00,7055.96 1264.00,7055.96
             1264.00,7055.96 1247.00,7039.04 1247.00,7039.04
             1247.00,7039.04 1238.00,7030.96 1238.00,7030.96
             1238.00,7030.96 1152.96,6945.00 1152.96,6945.00
             1152.96,6945.00 1136.04,6928.00 1136.04,6928.00
             1136.04,6928.00 1089.09,6878.00 1089.09,6878.00
             1029.58,6814.12 972.92,6747.53 917.58,6680.00
             836.48,6581.05 760.62,6477.44 689.67,6371.00
             469.86,6041.30 301.57,5688.34 183.98,5310.00
             136.12,5156.04 96.06,4995.69 67.42,4837.00
             52.38,4753.65 39.66,4670.05 29.28,4586.00
             29.28,4586.00 18.17,4483.00 18.17,4483.00
             18.17,4483.00 13.83,4431.00 13.83,4431.00
             13.83,4431.00 8.91,4364.00 8.91,4364.00
             8.91,4364.00 7.00,4337.00 7.00,4337.00
             7.00,4337.00 6.00,4321.00 6.00,4321.00
             6.00,4321.00 5.00,4296.00 5.00,4296.00
             5.00,4296.00 3.96,4280.00 3.96,4280.00
             3.96,4280.00 3.96,4269.00 3.96,4269.00
             3.96,4269.00 3.00,4259.00 3.00,4259.00
             3.00,4259.00 3.00,4246.00 3.00,4246.00
             3.00,4246.00 2.00,4231.00 2.00,4231.00
             2.00,4231.00 2.00,4215.00 2.00,4215.00
             2.00,4215.00 1.00,4199.00 1.00,4199.00
             1.00,4199.00 1.00,4169.00 1.00,4169.00
             1.00,4169.00 0.00,4152.00 0.00,4152.00
             0.00,4152.00 0.00,4038.00 0.00,4038.00
             0.00,4038.00 1.00,4023.00 1.00,4023.00
             1.00,4023.00 1.00,3993.00 1.00,3993.00
             1.00,3993.00 2.00,3976.00 2.00,3976.00
             2.00,3976.00 3.00,3933.00 3.00,3933.00
             3.00,3933.00 4.00,3918.00 4.00,3918.00
             4.00,3918.00 5.00,3891.00 5.00,3891.00
             5.00,3891.00 6.00,3873.00 6.00,3873.00
             6.00,3873.00 7.00,3854.00 7.00,3854.00
             7.00,3854.00 8.00,3844.00 8.00,3844.00
             8.00,3844.00 8.00,3835.00 8.00,3835.00
             8.00,3835.00 9.91,3813.00 9.91,3813.00
             9.91,3813.00 16.83,3726.00 16.83,3726.00
             16.83,3726.00 22.17,3669.00 22.17,3669.00
             28.92,3601.49 38.17,3534.06 48.58,3467.00
             79.32,3268.98 124.50,3073.36 183.98,2882.00
             198.75,2834.45 214.00,2786.92 230.69,2740.00
             260.33,2656.71 292.21,2574.52 326.42,2493.00
             326.42,2493.00 392.31,2346.00 392.31,2346.00
             392.31,2346.00 412.74,2304.00 412.74,2304.00
             412.74,2304.00 453.74,2222.00 453.74,2222.00
             524.41,2085.04 602.16,1952.26 687.67,1824.00
             802.48,1651.79 924.11,1496.60 1062.83,1343.00
             1062.83,1343.00 1136.04,1264.00 1136.04,1264.00
             1136.04,1264.00 1152.96,1247.00 1152.96,1247.00
             1152.96,1247.00 1238.00,1161.04 1238.00,1161.04
             1238.00,1161.04 1359.00,1048.17 1359.00,1048.17
             1459.82,957.43 1567.40,870.10 1677.00,790.15
             2052.62,516.13 2469.79,307.80 2915.00,173.72
             3066.78,128.01 3221.03,91.70 3377.00,63.58
             3426.78,54.60 3476.85,46.32 3527.00,39.72
             3527.00,39.72 3669.00,22.17 3669.00,22.17
             3669.00,22.17 3813.00,9.91 3813.00,9.91
             3813.00,9.91 3835.00,8.00 3835.00,8.00
             3835.00,8.00 3844.00,8.00 3844.00,8.00
             3844.00,8.00 3855.00,7.00 3855.00,7.00
             3855.00,7.00 3877.00,6.00 3877.00,6.00
             3877.00,6.00 3891.00,5.00 3891.00,5.00
             3891.00,5.00 3919.00,4.00 3919.00,4.00
             3919.00,4.00 3935.00,2.96 3935.00,2.96
             3935.00,2.96 3949.00,2.96 3949.00,2.96
             3949.00,2.96 3960.00,2.00 3960.00,2.00
             3960.00,2.00 3976.00,2.00 3976.00,2.00
             3976.00,2.00 3993.00,1.00 3993.00,1.00
             3993.00,1.00 4032.00,0.14 4032.00,0.14 Z" />
  <path id="path2"
        fill="oklch(0.6331 0.1802 259.75)" stroke="none"
        d="M 2802.00,2048.00
           C 2802.00,2048.00 3346.00,2048.00 3346.00,2048.00
             3346.00,2048.00 3346.00,5659.00 3346.00,5659.00
             3346.00,5659.00 5391.00,5659.00 5391.00,5659.00
             5391.00,5659.00 5391.00,6144.00 5391.00,6144.00
             5391.00,6144.00 2802.00,6144.00 2802.00,6144.00
             2802.00,6144.00 2802.00,2048.00 2802.00,2048.00 Z" />
</svg>
